<?xml version="1.0" encoding="iso-8859-1"?>
<!-- Generator: Adobe Illustrator 15.1.0, SVG Export Plug-In . SVG Version: 6.00 Build 0)  -->
<!DOCTYPE svg PUBLIC "-//W3C//DTD SVG 1.1//EN" "http://www.w3.org/Graphics/SVG/1.1/DTD/svg11.dtd">
<svg version="1.1" id="Layer_1" xmlns="http://www.w3.org/2000/svg" xmlns:xlink="http://www.w3.org/1999/xlink" x="0px" y="0px"
	 width="1536px" height="2048px" viewBox="0 0 1536 2048" style="enable-background:new 0 0 1536 2048;" xml:space="preserve">
<g>
	<path d="M575.084,96.788V55.717h8.59v34.245h12.855v6.826H575.084z"/>
	<path d="M598.916,82.055c0-7.85,1.138-14.562,11.718-14.562s11.718,6.713,11.718,14.562c0,8.988-1.365,15.302-11.718,15.302
		S598.916,91.043,598.916,82.055z M614.332,81.6c0-5.973-0.285-8.987-3.698-8.987s-3.698,3.015-3.698,8.987
		c0,8.761,0.74,10.638,3.698,10.638S614.332,90.36,614.332,81.6z"/>
	<path d="M627.071,82.055c0-7.85,1.138-14.562,11.718-14.562s11.718,6.713,11.718,14.562c0,8.988-1.365,15.302-11.718,15.302
		S627.071,91.043,627.071,82.055z M642.487,81.6c0-5.973-0.285-8.987-3.698-8.987s-3.698,3.015-3.698,8.987
		c0,8.761,0.74,10.638,3.698,10.638S642.487,90.36,642.487,81.6z"/>
	<path d="M655.739,96.788V55.717h8.021v24.46h0.114l7.224-12.116h8.362l-8.135,12.799l9.045,15.928h-9.045l-7.452-15.644h-0.114
		v15.644H655.739z"/>
	<path d="M696.407,76.253c0-10.865,0-21.218,14.164-21.218c14.165,0,14.165,10.353,14.165,21.218c0,10.751,0,21.218-14.165,21.218
		C696.407,97.471,696.407,87.004,696.407,76.253z M716.032,76.253c0-10.524-0.625-15.075-5.461-15.075
		c-4.835,0-5.461,4.551-5.461,15.075c0,10.523,0.626,15.074,5.461,15.074C715.407,91.327,716.032,86.776,716.032,76.253z"/>
	<path d="M728.146,68.062h8.135l4.039,21.559h0.114l4.209-21.559h7.85l-7.907,28.727h-8.817L728.146,68.062z"/>
	<path d="M763.241,83.705c0,3.413,0.114,8.533,3.641,8.533c2.844,0,3.414-2.73,3.414-5.12h8.134
		c-0.113,3.128-1.138,5.688-3.071,7.452c-1.877,1.764-4.722,2.788-8.476,2.788c-10.353,0-11.718-6.314-11.718-15.302
		c0-7.85,1.138-14.562,11.718-14.562c10.808,0,12.002,6.997,11.718,16.212H763.241z M770.579,79.211c0-2.788,0.113-6.77-3.698-6.77
		c-3.698,0-3.641,4.323-3.641,6.77H770.579z"/>
	<path d="M791.623,68.062v3.697h0.114c1.479-3.299,4.21-4.267,7.452-4.267v7.168c-7.054-0.455-7.168,3.641-7.168,6.484v15.644
		h-8.021V68.062H791.623z"/>
	<path d="M839.858,55.717v6.826h-9.557v34.245h-8.589V62.543h-9.557v-6.826H839.858z"/>
	<path d="M857.207,96.788V76.992c0-2.56-0.455-4.551-3.016-4.551c-2.56,0-3.015,1.991-3.015,4.551v19.796h-8.021V55.717h8.021
		v15.245h0.114c0.796-1.308,1.764-2.162,2.844-2.673c1.138-0.569,2.446-0.797,3.926-0.797c3.811,0,7.167,2.275,7.167,6.258v23.038
		H857.207z"/>
	<path d="M878.707,83.705c0,3.413,0.113,8.533,3.641,8.533c2.844,0,3.412-2.73,3.412-5.12h8.135
		c-0.113,3.128-1.138,5.688-3.071,7.452c-1.878,1.764-4.722,2.788-8.476,2.788c-10.354,0-11.719-6.314-11.719-15.302
		c0-7.85,1.138-14.562,11.719-14.562c10.808,0,12.002,6.997,11.718,16.212H878.707z M886.045,79.211c0-2.788,0.113-6.77-3.697-6.77
		c-3.698,0-3.641,4.323-3.641,6.77H886.045z"/>
	<path d="M907.09,68.062v3.697h0.114c1.479-3.299,4.21-4.267,7.452-4.267v7.168c-7.054-0.455-7.168,3.641-7.168,6.484v15.644h-8.021
		V68.062H907.09z"/>
	<path d="M925.52,83.705c0,3.413,0.113,8.533,3.641,8.533c2.844,0,3.412-2.73,3.412-5.12h8.135
		c-0.113,3.128-1.138,5.688-3.071,7.452c-1.878,1.764-4.722,2.788-8.476,2.788c-10.354,0-11.719-6.314-11.719-15.302
		c0-7.85,1.138-14.562,11.719-14.562c10.808,0,12.002,6.997,11.718,16.212H925.52z M932.857,79.211c0-2.788,0.113-6.77-3.697-6.77
		c-3.698,0-3.641,4.323-3.641,6.77H932.857z"/>
	<path d="M955.268,85.81h-5.461l-1.251-30.092h7.964L955.268,85.81z M955.951,89.962v6.826h-6.826v-6.826H955.951z"/>
</g>
<g>
	<path d="M54.524,323.252c4.835-0.113,5.518-1.081,5.518-5.119v-25.257c0-4.21-0.797-4.893-5.518-5.12v-1.081h16.895v1.081
		c-4.153,0.171-5.575,0.569-5.575,5.12v25.257c0,4.437,1.365,5.006,5.575,5.119v1.081H54.524V323.252z"/>
	<path d="M103.726,306.471c-1.251-5.802-3.811-6.997-6.314-6.997c-3.129,0-4.323,2.218-4.323,3.697c0,1.138,0.341,2.787,2.446,4.039
		l6.144,3.641c2.788,1.706,4.778,3.299,4.778,6.712c0,4.949-4.608,7.338-8.249,7.338c-2.56,0-5.006-1.081-6.599-1.024
		c-0.683,0-0.91,0.171-1.251,0.683h-0.74v-8.874h0.91c0.683,3.015,1.763,7.964,7.338,7.964c1.934,0,4.607-0.91,4.607-4.152
		c0-1.82-1.138-3.186-2.958-4.21l-3.299-1.877c-3.527-1.991-6.656-4.096-6.656-8.305c0-3.186,2.446-6.94,7.964-6.94
		c2.503,0,4.267,1.138,5.233,1.138c0.512,0,0.797-0.398,0.967-0.626h0.625l0.228,7.793H103.726z"/>
	<path d="M132.906,315.402c-0.569,1.763-3.868,9.5-12.06,9.5c-6.314,0-10.637-4.665-10.637-12.742
		c0-10.524,7.054-13.994,11.604-13.994c5.347,0,9.386,2.958,10.012,10.41h-17.691c0.683,10.068,5.29,12.4,9.045,12.4
		c5.062,0,7.509-3.868,8.817-5.973L132.906,315.402z M126.022,306.756c-0.398-2.73-0.967-6.542-5.461-6.542
		c-3.128,0-5.347,1.536-6.257,6.542H126.022z"/>
	<path d="M158.16,315.402c-0.569,1.763-3.868,9.5-12.06,9.5c-6.314,0-10.637-4.665-10.637-12.742
		c0-10.524,7.054-13.994,11.604-13.994c5.347,0,9.386,2.958,10.012,10.41h-17.691c0.683,10.068,5.29,12.4,9.045,12.4
		c5.062,0,7.509-3.868,8.817-5.973L158.16,315.402z M151.276,306.756c-0.398-2.73-0.967-6.542-5.461-6.542
		c-3.128,0-5.347,1.536-6.257,6.542H151.276z"/>
	<path d="M198.658,322.058c-2.389,2.787-4.153,2.844-5.063,2.844c-1.023,0-3.413-0.057-3.697-4.153
		c-2.104,1.877-5.12,4.153-8.248,4.153c-3.072,0-6.03-2.105-6.03-5.916c0-5.688,4.949-7.623,14.222-11.263v-3.47
		c0-4.096-2.674-4.722-4.38-4.722c-1.877,0-4.039,1.024-4.039,2.787c0,0.854,0.284,1.707,0.284,2.219
		c0,1.194-1.081,2.446-2.56,2.446c-1.764,0-2.446-1.593-2.446-2.503c0-2.275,2.674-6.314,9.272-6.314
		c8.476,0,8.476,5.688,8.476,9.102v11.093c0,1.649,0,3.299,1.649,3.299c1.195,0,1.935-0.568,2.56-1.081V322.058z M189.841,309.088
		c-8.59,2.844-9.216,6.03-9.216,7.964v0.114c0,2.673,1.65,4.437,3.755,4.437c1.251,0,3.015-0.739,3.526-1.024
		c1.764-0.853,1.935-1.536,1.935-3.243V309.088z"/>
	<path d="M216.914,291.738c0-1.707,0-2.901-2.503-2.901c-0.342,0-0.91,0-1.252,0.057v-0.91c2.73-0.739,5.518-1.536,8.249-2.503
		l0.285,0.114v17.179h0.113c0.342-1.308,3.356-4.607,7.68-4.607c6.883,0,10.125,6.542,10.125,12.628
		c0,5.12-3.356,14.107-13.88,14.107c-2.844,0-8.817-1.536-8.817-3.641V291.738z M221.692,320.351c0,1.991,4.039,2.73,5.461,2.73
		c6.542,0,7.452-6.428,7.452-10.182c0-5.291-2.048-11.149-7.224-11.149c-1.82,0-5.461,1.023-5.688,4.266V320.351z"/>
	<path d="M242.623,323.479c3.356-0.228,4.38-0.967,4.38-4.096V292.25c0-2.56-0.341-3.47-2.56-3.47c-0.739,0-1.251,0.057-1.934,0.113
		v-0.91c3.015-0.739,6.029-1.536,9.044-2.503l0.228,0.114v33.96c0,3.299,0.967,3.754,4.266,3.925v0.854h-13.425V323.479z"/>
	<path d="M282.384,322.058c-2.389,2.787-4.153,2.844-5.063,2.844c-1.023,0-3.413-0.057-3.697-4.153
		c-2.104,1.877-5.12,4.153-8.248,4.153c-3.072,0-6.03-2.105-6.03-5.916c0-5.688,4.949-7.623,14.222-11.263v-3.47
		c0-4.096-2.674-4.722-4.38-4.722c-1.877,0-4.039,1.024-4.039,2.787c0,0.854,0.284,1.707,0.284,2.219
		c0,1.194-1.081,2.446-2.56,2.446c-1.764,0-2.446-1.593-2.446-2.503c0-2.275,2.674-6.314,9.272-6.314
		c8.476,0,8.476,5.688,8.476,9.102v11.093c0,1.649,0,3.299,1.649,3.299c1.195,0,1.935-0.568,2.56-1.081V322.058z M273.567,309.088
		c-8.59,2.844-9.216,6.03-9.216,7.964v0.114c0,2.673,1.65,4.437,3.755,4.437c1.251,0,3.015-0.739,3.526-1.024
		c1.764-0.853,1.935-1.536,1.935-3.243V309.088z"/>
	<path d="M305.932,315.971c-3.072,6.485-6.77,8.931-11.377,8.931c-4.551,0-10.638-3.698-10.638-12.685
		c0-9.329,6.599-14.051,12.742-14.051c2.048,0,4.608,0.854,6.03,1.764c1.706,1.194,2.446,2.958,2.446,3.981
		c0,1.309-0.91,2.39-2.617,2.503c-1.479,0.114-2.446-1.365-2.787-2.616l-0.342-1.252c-0.455-1.706-0.739-2.73-3.754-2.73
		c-2.105,0-7.338,1.764-7.338,10.126c0,6.542,3.925,10.865,8.704,10.865c4.096,0,6.2-2.446,8.134-5.347L305.932,315.971z"/>
	<path d="M308.147,323.479c3.811-0.625,4.266-0.739,4.266-3.811V292.25c0-2.56-0.341-3.47-2.56-3.47
		c-0.739,0-1.251,0.057-1.706,0.113v-0.91c2.787-0.739,5.802-1.536,8.817-2.503l0.228,0.114v23.664l0.114,0.113
		c2.048-1.763,5.404-4.892,7.68-6.826c0.853-0.796,1.308-1.422,1.308-1.934c0-0.626-0.455-1.081-2.844-1.081v-0.796h11.604v0.853
		c-3.015,0-4.607,0-12.287,7.168l-1.649,1.536l8.703,11.036c2.901,3.641,5.12,4.039,6.655,4.152v0.854h-12.4v-0.854h1.081
		c0.455,0,1.195-0.17,1.195-0.91c0-0.398-0.512-0.91-1.195-1.877l-7.85-10.467h-0.114v10.296c0,2.333,1.251,2.788,3.128,2.901
		l1.138,0.057v0.854h-13.311V323.479z"/>
	<path d="M373.846,315.971c-3.072,6.485-6.77,8.931-11.377,8.931c-4.551,0-10.638-3.698-10.638-12.685
		c0-9.329,6.599-14.051,12.742-14.051c2.048,0,4.608,0.854,6.03,1.764c1.706,1.194,2.446,2.958,2.446,3.981
		c0,1.309-0.91,2.39-2.617,2.503c-1.479,0.114-2.446-1.365-2.787-2.616l-0.342-1.252c-0.455-1.706-0.739-2.73-3.754-2.73
		c-2.105,0-7.338,1.764-7.338,10.126c0,6.542,3.925,10.865,8.704,10.865c4.096,0,6.2-2.446,8.134-5.347L373.846,315.971z"/>
	<path d="M400.806,322.058c-2.389,2.787-4.153,2.844-5.063,2.844c-1.023,0-3.413-0.057-3.697-4.153
		c-2.104,1.877-5.12,4.153-8.248,4.153c-3.072,0-6.03-2.105-6.03-5.916c0-5.688,4.949-7.623,14.222-11.263v-3.47
		c0-4.096-2.674-4.722-4.38-4.722c-1.877,0-4.039,1.024-4.039,2.787c0,0.854,0.284,1.707,0.284,2.219
		c0,1.194-1.081,2.446-2.56,2.446c-1.764,0-2.446-1.593-2.446-2.503c0-2.275,2.674-6.314,9.272-6.314
		c8.476,0,8.476,5.688,8.476,9.102v11.093c0,1.649,0,3.299,1.649,3.299c1.195,0,1.935-0.568,2.56-1.081V322.058z M391.989,309.088
		c-8.59,2.844-9.216,6.03-9.216,7.964v0.114c0,2.673,1.65,4.437,3.755,4.437c1.251,0,3.015-0.739,3.526-1.024
		c1.764-0.853,1.935-1.536,1.935-3.243V309.088z"/>
	<path d="M415.423,300.555h-5.746v16.269c0,1.764,0,5.12,2.901,5.12c1.82,0,2.845-1.251,3.47-1.991l0.74,0.625
		c-1.365,2.446-4.039,4.323-6.656,4.323c-2.901,0-5.233-1.536-5.233-7.224v-17.123h-3.015c-0.113-0.057-0.228-0.228-0.228-0.398
		c0-0.683,1.252-1.024,2.503-2.275c2.162-2.219,3.015-3.47,5.12-6.485c0.398,0,0.398,0.285,0.398,0.74v6.599h5.746V300.555z"/>
	<path d="M420.711,321.887c0-1.82,1.422-3.242,3.128-3.242c1.707,0,3.186,1.479,3.186,3.242c0,2.105-1.991,3.072-3.186,3.072
		C422.646,324.959,420.711,324.049,420.711,321.887z"/>
</g>
<g>
	<path d="M54.41,455.971c4.323-0.228,5.006-1.138,5.006-5.119v-25.257c0-4.21-0.626-4.778-5.006-5.12v-1.081h15.359
		c13.652,0,22.697,6.201,22.697,18.943c0,7.565-4.494,18.715-21.9,18.715H54.41V455.971z M65.218,452.615
		c0,1.934,0.683,2.333,3.413,2.333c3.641,0,17.634,0,17.634-16.554c0-4.778-1.365-9.386-5.29-12.913
		c-2.73-2.446-5.916-3.981-13.084-3.981c-2.673,0-2.673,1.081-2.673,2.218V452.615z"/>
	<path d="M121.302,444.082c0,5.632-3.982,13.539-12.628,13.539c-7.338,0-12.458-5.859-12.458-13.539
		c0-6.997,4.665-13.197,12.287-13.197C115.955,430.885,121.302,435.834,121.302,444.082z M116.183,445.731
		c0-7.054-2.901-13.254-8.135-13.254c-3.583,0-6.712,2.958-6.712,8.874c0,4.209,1.308,14.676,8.134,14.676
		C112.371,456.028,116.183,453.866,116.183,445.731z"/>
	<path d="M164.247,432.307c-0.74,0.114-1.877,0.228-2.73,2.56l-8.761,23.209c-2.901,7.623-5.404,11.377-9.67,11.377
		c-2.845,0-4.153-1.82-4.153-3.299c0-0.341,0.114-2.503,2.73-2.503c1.536,0,3.299,1.024,4.039,1.024c2.958,0,5.233-7.85,5.233-8.76
		c0-0.854-2.73-6.087-3.526-7.85l-6.485-13.994c-0.683-1.422-2.161-1.707-2.901-1.82v-0.796h11.718v0.853
		c-1.309,0.057-3.299,0.114-3.299,1.65c0,0.74,0.398,1.65,0.569,2.048l6.542,14.392l4.437-12.629
		c0.569-1.536,1.309-3.356,1.309-3.868c0-1.081-0.91-1.649-2.73-1.593v-0.853h7.68V432.307z"/>
	<path d="M192.402,444.082c0,5.632-3.982,13.539-12.628,13.539c-7.338,0-12.458-5.859-12.458-13.539
		c0-6.997,4.664-13.197,12.287-13.197C187.055,430.885,192.402,435.834,192.402,444.082z M187.283,445.731
		c0-7.054-2.901-13.254-8.134-13.254c-3.584,0-6.713,2.958-6.713,8.874c0,4.209,1.309,14.676,8.135,14.676
		C183.472,456.028,187.283,453.866,187.283,445.731z"/>
	<path d="M221.354,455.004c-3.072,0.796-5.233,1.593-7.907,2.56l-0.114-0.113v-4.722l-2.446,2.446
		c-2.219,2.218-4.949,2.446-5.973,2.446c-2.333,0-6.769-1.365-6.769-7.395v-14.335c0-3.413-1.82-3.527-3.527-3.641v-0.796h8.306
		v18.544c0,0.796,0.512,4.323,4.266,4.323c1.707,0,3.413-0.796,4.949-2.048c0.512-0.455,0.91-1.024,0.91-2.901v-13.368
		c0-2.275-0.228-3.47-4.209-3.583v-0.967h8.987v19.511c0,2.048,0.114,3.356,3.527,3.243V455.004z"/>
	<path d="M253.832,439.19c-1.251-5.802-3.812-6.997-6.314-6.997c-3.128,0-4.323,2.218-4.323,3.697c0,1.138,0.342,2.787,2.446,4.039
		l6.144,3.641c2.787,1.706,4.778,3.299,4.778,6.712c0,4.949-4.607,7.338-8.248,7.338c-2.56,0-5.006-1.081-6.599-1.024
		c-0.683,0-0.91,0.171-1.252,0.683h-0.739v-8.874h0.91c0.683,3.015,1.764,7.964,7.338,7.964c1.935,0,4.608-0.91,4.608-4.152
		c0-1.82-1.138-3.186-2.958-4.21l-3.299-1.877c-3.527-1.991-6.655-4.096-6.655-8.305c0-3.186,2.446-6.94,7.964-6.94
		c2.503,0,4.266,1.138,5.233,1.138c0.512,0,0.796-0.398,0.967-0.626h0.626l0.228,7.793H253.832z"/>
	<path d="M283.012,448.121c-0.569,1.763-3.868,9.5-12.06,9.5c-6.314,0-10.638-4.665-10.638-12.742
		c0-10.524,7.054-13.994,11.604-13.994c5.348,0,9.386,2.958,10.012,10.41H264.24c0.683,10.068,5.291,12.4,9.044,12.4
		c5.063,0,7.509-3.868,8.817-5.973L283.012,448.121z M276.129,439.475c-0.398-2.73-0.967-6.542-5.461-6.542
		c-3.129,0-5.348,1.536-6.258,6.542H276.129z"/>
	<path d="M308.266,448.121c-0.569,1.763-3.868,9.5-12.06,9.5c-6.314,0-10.638-4.665-10.638-12.742
		c0-10.524,7.054-13.994,11.604-13.994c5.348,0,9.386,2.958,10.012,10.41h-17.691c0.683,10.068,5.291,12.4,9.044,12.4
		c5.063,0,7.509-3.868,8.817-5.973L308.266,448.121z M301.383,439.475c-0.398-2.73-0.967-6.542-5.461-6.542
		c-3.129,0-5.348,1.536-6.258,6.542H301.383z"/>
	<path d="M338.126,433.274h-5.745v16.269c0,1.764,0,5.12,2.901,5.12c1.82,0,2.844-1.251,3.47-1.991l0.739,0.625
		c-1.365,2.446-4.039,4.323-6.655,4.323c-2.901,0-5.233-1.536-5.233-7.224v-17.123h-3.015c-0.114-0.057-0.228-0.228-0.228-0.398
		c0-0.683,1.251-1.024,2.503-2.275c2.161-2.219,3.015-3.47,5.119-6.485c0.398,0,0.398,0.285,0.398,0.74v6.599h5.745V433.274z"/>
	<path d="M367.136,457.052h-12.06v-0.854c2.788-0.284,3.868-0.568,3.868-4.949v-11.263c0-3.812-1.251-6.03-4.38-6.03
		c-1.649,0-3.868,0.853-6.2,3.583v13.709c0,4.38,1.081,4.665,3.868,4.949v0.854h-12.287v-0.854c3.071-0.398,3.641-0.796,3.641-4.949
		v-26.792c0-1.707,0-2.901-2.503-2.901c-0.342,0-0.91,0-1.081,0.057v-0.91c2.56-0.739,5.347-1.536,8.078-2.503l0.285,0.171v17.179
		h0.113c1.991-2.844,4.778-4.665,8.191-4.665c6.997,0,7.054,6.77,7.054,9.045v11.32c0,4.153,0.569,4.437,3.413,4.949V457.052z"/>
	<path d="M391.992,448.121c-0.569,1.763-3.868,9.5-12.06,9.5c-6.314,0-10.638-4.665-10.638-12.742
		c0-10.524,7.054-13.994,11.604-13.994c5.348,0,9.386,2.958,10.012,10.41H373.22c0.683,10.068,5.291,12.4,9.044,12.4
		c5.063,0,7.509-3.868,8.817-5.973L391.992,448.121z M385.109,439.475c-0.398-2.73-0.967-6.542-5.461-6.542
		c-3.129,0-5.348,1.536-6.258,6.542H385.109z"/>
	<path d="M411.272,424.457c0-1.707,0-2.901-2.503-2.901c-0.342,0-0.91,0-1.252,0.057v-0.91c2.73-0.739,5.518-1.536,8.249-2.503
		l0.285,0.114v17.179h0.113c0.342-1.308,3.356-4.607,7.68-4.607c6.883,0,10.125,6.542,10.125,12.628
		c0,5.12-3.356,14.107-13.88,14.107c-2.844,0-8.817-1.536-8.817-3.641V424.457z M416.051,453.07c0,1.991,4.039,2.73,5.461,2.73
		c6.542,0,7.452-6.428,7.452-10.182c0-5.291-2.048-11.149-7.224-11.149c-1.82,0-5.461,1.023-5.688,4.266V453.07z"/>
	<path d="M436.981,456.198c3.356-0.228,4.38-0.967,4.38-4.096v-27.134c0-2.56-0.341-3.47-2.56-3.47
		c-0.739,0-1.251,0.057-1.934,0.113v-0.91c3.015-0.739,6.029-1.536,9.044-2.503l0.228,0.114v33.96c0,3.299,0.967,3.754,4.266,3.925
		v0.854h-13.425V456.198z"/>
	<path d="M476.743,454.776c-2.389,2.787-4.153,2.844-5.063,2.844c-1.023,0-3.413-0.057-3.697-4.153
		c-2.104,1.877-5.12,4.153-8.248,4.153c-3.072,0-6.03-2.105-6.03-5.916c0-5.688,4.949-7.623,14.222-11.263v-3.47
		c0-4.096-2.674-4.722-4.38-4.722c-1.877,0-4.039,1.024-4.039,2.787c0,0.854,0.284,1.707,0.284,2.219
		c0,1.194-1.081,2.446-2.56,2.446c-1.764,0-2.446-1.593-2.446-2.503c0-2.275,2.674-6.314,9.272-6.314
		c8.476,0,8.476,5.688,8.476,9.102v11.093c0,1.649,0,3.299,1.649,3.299c1.195,0,1.935-0.568,2.56-1.081V454.776z M467.926,441.807
		c-8.59,2.844-9.216,6.03-9.216,7.964v0.114c0,2.673,1.65,4.437,3.755,4.437c1.251,0,3.015-0.739,3.526-1.024
		c1.764-0.853,1.935-1.536,1.935-3.243V441.807z"/>
	<path d="M500.29,448.689c-3.072,6.485-6.77,8.931-11.377,8.931c-4.551,0-10.638-3.698-10.638-12.685
		c0-9.329,6.599-14.051,12.742-14.051c2.048,0,4.608,0.854,6.03,1.764c1.706,1.194,2.446,2.958,2.446,3.981
		c0,1.309-0.91,2.39-2.617,2.503c-1.479,0.114-2.446-1.365-2.787-2.616l-0.342-1.252c-0.455-1.706-0.739-2.73-3.754-2.73
		c-2.105,0-7.338,1.764-7.338,10.126c0,6.542,3.925,10.865,8.704,10.865c4.096,0,6.2-2.446,8.134-5.347L500.29,448.689z"/>
	<path d="M502.506,456.198c3.811-0.625,4.266-0.739,4.266-3.811v-27.418c0-2.56-0.341-3.47-2.56-3.47
		c-0.739,0-1.251,0.057-1.706,0.113v-0.91c2.787-0.739,5.802-1.536,8.817-2.503l0.228,0.114v23.664l0.114,0.113
		c2.048-1.763,5.404-4.892,7.68-6.826c0.853-0.796,1.308-1.422,1.308-1.934c0-0.626-0.455-1.081-2.844-1.081v-0.796h11.604v0.853
		c-3.015,0-4.607,0-12.287,7.168l-1.649,1.536l8.703,11.036c2.901,3.641,5.12,4.039,6.655,4.152v0.854h-12.4v-0.854h1.081
		c0.455,0,1.195-0.17,1.195-0.91c0-0.398-0.512-0.91-1.195-1.877l-7.85-10.467h-0.114v10.296c0,2.333,1.251,2.788,3.128,2.901
		l1.138,0.057v0.854h-13.311V456.198z"/>
	<path d="M568.204,448.689c-3.072,6.485-6.77,8.931-11.377,8.931c-4.551,0-10.638-3.698-10.638-12.685
		c0-9.329,6.599-14.051,12.742-14.051c2.048,0,4.608,0.854,6.03,1.764c1.706,1.194,2.446,2.958,2.446,3.981
		c0,1.309-0.91,2.39-2.617,2.503c-1.479,0.114-2.446-1.365-2.787-2.616l-0.342-1.252c-0.455-1.706-0.739-2.73-3.754-2.73
		c-2.105,0-7.338,1.764-7.338,10.126c0,6.542,3.925,10.865,8.704,10.865c4.096,0,6.2-2.446,8.134-5.347L568.204,448.689z"/>
	<path d="M595.165,454.776c-2.389,2.787-4.153,2.844-5.063,2.844c-1.023,0-3.413-0.057-3.697-4.153
		c-2.104,1.877-5.12,4.153-8.248,4.153c-3.072,0-6.03-2.105-6.03-5.916c0-5.688,4.949-7.623,14.222-11.263v-3.47
		c0-4.096-2.674-4.722-4.38-4.722c-1.877,0-4.039,1.024-4.039,2.787c0,0.854,0.284,1.707,0.284,2.219
		c0,1.194-1.081,2.446-2.56,2.446c-1.764,0-2.446-1.593-2.446-2.503c0-2.275,2.674-6.314,9.272-6.314
		c8.476,0,8.476,5.688,8.476,9.102v11.093c0,1.649,0,3.299,1.649,3.299c1.195,0,1.935-0.568,2.56-1.081V454.776z M586.348,441.807
		c-8.59,2.844-9.216,6.03-9.216,7.964v0.114c0,2.673,1.65,4.437,3.755,4.437c1.251,0,3.015-0.739,3.526-1.024
		c1.764-0.853,1.935-1.536,1.935-3.243V441.807z"/>
	<path d="M609.781,433.274h-5.746v16.269c0,1.764,0,5.12,2.901,5.12c1.82,0,2.845-1.251,3.47-1.991l0.74,0.625
		c-1.365,2.446-4.039,4.323-6.656,4.323c-2.901,0-5.233-1.536-5.233-7.224v-17.123h-3.015c-0.113-0.057-0.228-0.228-0.228-0.398
		c0-0.683,1.252-1.024,2.503-2.275c2.162-2.219,3.015-3.47,5.12-6.485c0.398,0,0.398,0.285,0.398,0.74v6.599h5.746V433.274z"/>
	<path d="M624.001,447.723c0-3.356,1.365-7.281,1.706-8.078l1.593-3.641c1.024-2.275,2.105-6.201,2.105-8.476
		c0-3.413-1.877-7.224-6.257-7.224c-2.389,0-5.29,1.593-5.29,3.47c0,1.536,2.161,2.218,2.161,4.266c0,0.967-0.625,2.333-2.218,2.333
		c-2.275,0-2.844-1.65-2.844-3.584c0-5.745,5.347-8.191,9.272-8.191c3.242,0,6.997,1.649,8.362,3.299
		c1.536,1.877,2.048,3.186,2.048,6.144c0,2.901-2.56,6.883-4.266,8.874c-3.129,3.641-4.608,5.916-5.404,10.808H624.001z
		 M621.555,454.605c0-1.763,1.365-3.071,3.015-3.071c1.764,0,3.129,1.422,3.129,3.071c0,2.048-1.764,2.901-3.129,2.901
		C623.375,457.507,621.555,456.768,621.555,454.605z"/>
</g>
<g>
	<path d="M54.524,730.845c4.835-0.113,5.518-1.081,5.518-5.119v-25.257c0-4.21-0.797-4.893-5.518-5.12v-1.081h16.895v1.081
		c-4.153,0.171-5.575,0.569-5.575,5.12v25.257c0,4.437,1.365,5.006,5.575,5.119v1.081H54.524V730.845z"/>
	<path d="M103.726,714.064c-1.251-5.802-3.811-6.997-6.314-6.997c-3.129,0-4.323,2.218-4.323,3.697c0,1.138,0.341,2.787,2.446,4.039
		l6.144,3.641c2.788,1.706,4.778,3.299,4.778,6.712c0,4.949-4.608,7.338-8.249,7.338c-2.56,0-5.006-1.081-6.599-1.024
		c-0.683,0-0.91,0.171-1.251,0.683h-0.74v-8.874h0.91c0.683,3.015,1.763,7.964,7.338,7.964c1.934,0,4.607-0.91,4.607-4.152
		c0-1.82-1.138-3.186-2.958-4.21l-3.299-1.877c-3.527-1.991-6.656-4.096-6.656-8.305c0-3.186,2.446-6.94,7.964-6.94
		c2.503,0,4.267,1.138,5.233,1.138c0.512,0,0.797-0.398,0.967-0.626h0.625l0.228,7.793H103.726z"/>
	<path d="M132.906,722.995c-0.569,1.763-3.868,9.5-12.06,9.5c-6.314,0-10.637-4.665-10.637-12.742
		c0-10.524,7.054-13.994,11.604-13.994c5.347,0,9.386,2.958,10.012,10.41h-17.691c0.683,10.068,5.29,12.4,9.045,12.4
		c5.062,0,7.509-3.868,8.817-5.973L132.906,722.995z M126.022,714.349c-0.398-2.73-0.967-6.542-5.461-6.542
		c-3.128,0-5.347,1.536-6.257,6.542H126.022z"/>
	<path d="M158.16,722.995c-0.569,1.763-3.868,9.5-12.06,9.5c-6.314,0-10.637-4.665-10.637-12.742
		c0-10.524,7.054-13.994,11.604-13.994c5.347,0,9.386,2.958,10.012,10.41h-17.691c0.683,10.068,5.29,12.4,9.045,12.4
		c5.062,0,7.509-3.868,8.817-5.973L158.16,722.995z M151.276,714.349c-0.398-2.73-0.967-6.542-5.461-6.542
		c-3.128,0-5.347,1.536-6.257,6.542H151.276z"/>
	<path d="M198.658,729.65c-2.389,2.787-4.153,2.844-5.063,2.844c-1.023,0-3.413-0.057-3.697-4.153
		c-2.104,1.877-5.12,4.153-8.248,4.153c-3.072,0-6.03-2.105-6.03-5.916c0-5.688,4.949-7.623,14.222-11.263v-3.47
		c0-4.096-2.674-4.722-4.38-4.722c-1.877,0-4.039,1.024-4.039,2.787c0,0.854,0.284,1.707,0.284,2.219
		c0,1.194-1.081,2.446-2.56,2.446c-1.764,0-2.446-1.593-2.446-2.503c0-2.275,2.674-6.314,9.272-6.314
		c8.476,0,8.476,5.688,8.476,9.102v11.093c0,1.649,0,3.299,1.649,3.299c1.195,0,1.935-0.568,2.56-1.081V729.65z M189.841,716.681
		c-8.59,2.844-9.216,6.03-9.216,7.964v0.114c0,2.673,1.65,4.437,3.755,4.437c1.251,0,3.015-0.739,3.526-1.024
		c1.764-0.853,1.935-1.536,1.935-3.243V716.681z"/>
	<path d="M217.312,712.926c0-3.356-1.081-3.413-1.991-3.413c-0.797,0-1.422,0.114-1.935,0.228v-0.91
		c2.788-0.91,5.632-1.934,8.419-3.072l0.285,0.114v5.063h0.114c2.674-4.039,4.607-5.177,6.77-5.177c1.934,0,3.071,1.194,3.071,3.072
		c0,1.422-0.796,2.503-2.161,2.503c-1.991,0-2.56-1.991-3.925-1.991s-3.868,2.844-3.868,4.664v12.799
		c0,3.925,1.934,4.153,4.835,4.266v0.854h-13.652v-0.854c3.128-0.568,4.039-0.739,4.039-3.925V712.926z"/>
	<path d="M256.048,722.995c-0.569,1.763-3.868,9.5-12.06,9.5c-6.314,0-10.637-4.665-10.637-12.742
		c0-10.524,7.054-13.994,11.604-13.994c5.347,0,9.386,2.958,10.012,10.41h-17.691c0.683,10.068,5.29,12.4,9.045,12.4
		c5.062,0,7.509-3.868,8.817-5.973L256.048,722.995z M249.165,714.349c-0.398-2.73-0.967-6.542-5.461-6.542
		c-3.128,0-5.347,1.536-6.257,6.542H249.165z"/>
	<path d="M285.113,729.537c-2.73,0.967-5.347,1.877-8.362,2.958l-0.228-0.17v-3.47h-0.114c-1.024,1.536-3.129,3.641-7.338,3.641
		c-2.219,0-10.354-1.138-10.354-12.742c0-7.452,5.404-13.994,11.775-13.994c2.446,0,4.152,0.796,6.03,2.446v-8.874
		c0-1.707,0-2.901-2.503-2.901c-0.341,0-0.91,0-1.365,0.057v-0.91c2.844-0.739,5.631-1.536,8.362-2.503l0.285,0.114v32.253
		c0,2.333,0,3.47,3.811,3.186V729.537z M276.524,713.04c-0.398-3.868-3.186-5.688-5.859-5.688c-3.186,0-7.054,2.787-7.054,10.523
		c0,8.476,4.096,11.662,7.85,11.662c2.39,0,4.608-1.365,5.063-3.413V713.04z"/>
	<path d="M317.421,708.148h-6.94v17.862c0,3.47,0.057,4.949,5.291,5.062v0.854h-14.79v-0.854c3.754-0.17,4.721-0.683,4.721-5.062
		v-17.862h-4.664v-1.82h4.664c0-3.186,0-13.254,10.239-13.254c3.186,0,5.688,1.536,5.688,3.47c0,1.65-1.308,2.389-2.446,2.389
		c-2.389,0-2.673-4.267-5.347-4.267c-3.129,0-3.413,2.958-3.413,5.063v6.599h6.997V708.148z"/>
</g>
<g>
	<path d="M323.678,731.072c3.527-0.17,4.494-0.512,4.494-4.949v-13.197c0-3.356-1.081-3.413-1.991-3.413
		c-0.796,0-1.536,0.114-2.275,0.228v-0.853c2.958-0.967,5.859-2.048,8.817-3.129l0.228,0.171v20.194
		c0,3.754,0.284,4.721,4.209,4.949v0.854h-13.481V731.072z M330.049,693.073c1.707,0,2.958,1.309,2.958,2.901
		c0,1.649-1.251,2.901-2.958,2.901c-2.048,0-2.844-1.82-2.844-2.901S328.058,693.073,330.049,693.073z"/>
	<path d="M355.646,714.064c-1.251-5.802-3.812-6.997-6.314-6.997c-3.128,0-4.323,2.218-4.323,3.697c0,1.138,0.342,2.787,2.446,4.039
		l6.144,3.641c2.787,1.706,4.778,3.299,4.778,6.712c0,4.949-4.607,7.338-8.248,7.338c-2.56,0-5.006-1.081-6.599-1.024
		c-0.683,0-0.91,0.171-1.252,0.683h-0.739v-8.874h0.91c0.683,3.015,1.764,7.964,7.338,7.964c1.935,0,4.608-0.91,4.608-4.152
		c0-1.82-1.138-3.186-2.958-4.21l-3.299-1.877c-3.527-1.991-6.655-4.096-6.655-8.305c0-3.186,2.446-6.94,7.964-6.94
		c2.503,0,4.266,1.138,5.233,1.138c0.512,0,0.796-0.398,0.967-0.626h0.626l0.228,7.793H355.646z"/>
	<path d="M388.409,731.926h-12.06v-0.854c2.787-0.284,3.868-0.568,3.868-4.949V714.86c0-3.812-1.252-6.03-4.38-6.03
		c-1.65,0-3.868,0.853-6.201,3.583v13.709c0,4.38,1.081,4.665,3.868,4.949v0.854h-12.287v-0.854
		c3.072-0.398,3.641-0.796,3.641-4.949v-26.792c0-1.707,0-2.901-2.503-2.901c-0.341,0-0.91,0-1.081,0.057v-0.91
		c2.56-0.739,5.347-1.536,8.078-2.503l0.284,0.171v17.179h0.114c1.991-2.844,4.778-4.665,8.191-4.665
		c6.997,0,7.054,6.77,7.054,9.045v11.32c0,4.153,0.568,4.437,3.413,4.949V731.926z"/>
	<path d="M393.128,729.479c0-1.82,1.422-3.242,3.129-3.242c1.706,0,3.186,1.479,3.186,3.242c0,2.105-1.991,3.072-3.186,3.072
		C395.062,732.552,393.128,731.642,393.128,729.479z"/>
</g>
<g>
	<path d="M54.41,863.61c4.323-0.228,5.006-1.138,5.006-5.119v-25.257c0-4.21-0.626-4.778-5.006-5.12v-1.081h15.359
		c13.652,0,22.697,6.201,22.697,18.943c0,7.565-4.494,18.715-21.9,18.715H54.41V863.61z M65.218,860.254
		c0,1.934,0.683,2.333,3.413,2.333c3.641,0,17.634,0,17.634-16.554c0-4.778-1.365-9.386-5.29-12.913
		c-2.73-2.446-5.916-3.981-13.084-3.981c-2.673,0-2.673,1.081-2.673,2.218V860.254z"/>
	<path d="M121.302,851.722c0,5.632-3.982,13.539-12.628,13.539c-7.338,0-12.458-5.859-12.458-13.539
		c0-6.997,4.665-13.197,12.287-13.197C115.955,838.524,121.302,843.474,121.302,851.722z M116.183,853.371
		c0-7.054-2.901-13.254-8.135-13.254c-3.583,0-6.712,2.958-6.712,8.874c0,4.209,1.308,14.676,8.134,14.676
		C112.371,863.667,116.183,861.506,116.183,853.371z"/>
	<path d="M164.247,839.946c-0.74,0.114-1.877,0.228-2.73,2.56l-8.761,23.209c-2.901,7.623-5.404,11.377-9.67,11.377
		c-2.845,0-4.153-1.82-4.153-3.299c0-0.341,0.114-2.503,2.73-2.503c1.536,0,3.299,1.024,4.039,1.024c2.958,0,5.233-7.85,5.233-8.76
		c0-0.854-2.73-6.087-3.526-7.85l-6.485-13.994c-0.683-1.422-2.161-1.707-2.901-1.82v-0.796h11.718v0.853
		c-1.309,0.057-3.299,0.114-3.299,1.65c0,0.74,0.398,1.65,0.569,2.048l6.542,14.392l4.437-12.629
		c0.569-1.536,1.309-3.356,1.309-3.868c0-1.081-0.91-1.649-2.73-1.593v-0.853h7.68V839.946z"/>
	<path d="M192.402,851.722c0,5.632-3.982,13.539-12.628,13.539c-7.338,0-12.458-5.859-12.458-13.539
		c0-6.997,4.664-13.197,12.287-13.197C187.055,838.524,192.402,843.474,192.402,851.722z M187.283,853.371
		c0-7.054-2.901-13.254-8.134-13.254c-3.584,0-6.713,2.958-6.713,8.874c0,4.209,1.309,14.676,8.135,14.676
		C183.472,863.667,187.283,861.506,187.283,853.371z"/>
	<path d="M221.354,862.644c-3.072,0.796-5.233,1.593-7.907,2.56l-0.114-0.113v-4.722l-2.446,2.446
		c-2.219,2.218-4.949,2.446-5.973,2.446c-2.333,0-6.769-1.365-6.769-7.395V843.53c0-3.413-1.82-3.527-3.527-3.641v-0.796h8.306
		v18.544c0,0.796,0.512,4.323,4.266,4.323c1.707,0,3.413-0.796,4.949-2.048c0.512-0.455,0.91-1.024,0.91-2.901v-13.368
		c0-2.275-0.228-3.47-4.209-3.583v-0.967h8.987v19.511c0,2.048,0.114,3.356,3.527,3.243V862.644z"/>
	<path d="M253.832,846.83c-1.251-5.802-3.812-6.997-6.314-6.997c-3.128,0-4.323,2.218-4.323,3.697c0,1.138,0.342,2.787,2.446,4.039
		l6.144,3.641c2.787,1.706,4.778,3.299,4.778,6.712c0,4.949-4.607,7.338-8.248,7.338c-2.56,0-5.006-1.081-6.599-1.024
		c-0.683,0-0.91,0.171-1.252,0.683h-0.739v-8.874h0.91c0.683,3.015,1.764,7.964,7.338,7.964c1.935,0,4.608-0.91,4.608-4.152
		c0-1.82-1.138-3.186-2.958-4.21l-3.299-1.877c-3.527-1.991-6.655-4.096-6.655-8.305c0-3.186,2.446-6.94,7.964-6.94
		c2.503,0,4.266,1.138,5.233,1.138c0.512,0,0.796-0.398,0.967-0.626h0.626l0.228,7.793H253.832z"/>
	<path d="M283.012,855.761c-0.569,1.763-3.868,9.5-12.06,9.5c-6.314,0-10.638-4.665-10.638-12.742
		c0-10.524,7.054-13.994,11.604-13.994c5.348,0,9.386,2.958,10.012,10.41H264.24c0.683,10.068,5.291,12.4,9.044,12.4
		c5.063,0,7.509-3.868,8.817-5.973L283.012,855.761z M276.129,847.114c-0.398-2.73-0.967-6.542-5.461-6.542
		c-3.129,0-5.348,1.536-6.258,6.542H276.129z"/>
	<path d="M308.266,855.761c-0.569,1.763-3.868,9.5-12.06,9.5c-6.314,0-10.638-4.665-10.638-12.742
		c0-10.524,7.054-13.994,11.604-13.994c5.348,0,9.386,2.958,10.012,10.41h-17.691c0.683,10.068,5.291,12.4,9.044,12.4
		c5.063,0,7.509-3.868,8.817-5.973L308.266,855.761z M301.383,847.114c-0.398-2.73-0.967-6.542-5.461-6.542
		c-3.129,0-5.348,1.536-6.258,6.542H301.383z"/>
	<path d="M338.126,840.914h-5.745v16.269c0,1.764,0,5.12,2.901,5.12c1.82,0,2.844-1.251,3.47-1.991l0.739,0.625
		c-1.365,2.446-4.039,4.323-6.655,4.323c-2.901,0-5.233-1.536-5.233-7.224v-17.123h-3.015c-0.114-0.057-0.228-0.228-0.228-0.398
		c0-0.683,1.251-1.024,2.503-2.275c2.161-2.219,3.015-3.47,5.119-6.485c0.398,0,0.398,0.285,0.398,0.74v6.599h5.745V840.914z"/>
	<path d="M367.136,864.691h-12.06v-0.854c2.788-0.284,3.868-0.568,3.868-4.949v-11.263c0-3.812-1.251-6.03-4.38-6.03
		c-1.649,0-3.868,0.853-6.2,3.583v13.709c0,4.38,1.081,4.665,3.868,4.949v0.854h-12.287v-0.854c3.071-0.398,3.641-0.796,3.641-4.949
		v-26.792c0-1.707,0-2.901-2.503-2.901c-0.342,0-0.91,0-1.081,0.057v-0.91c2.56-0.739,5.347-1.536,8.078-2.503l0.285,0.171v17.179
		h0.113c1.991-2.844,4.778-4.665,8.191-4.665c6.997,0,7.054,6.77,7.054,9.045v11.32c0,4.153,0.569,4.437,3.413,4.949V864.691z"/>
	<path d="M391.992,855.761c-0.569,1.763-3.868,9.5-12.06,9.5c-6.314,0-10.638-4.665-10.638-12.742
		c0-10.524,7.054-13.994,11.604-13.994c5.348,0,9.386,2.958,10.012,10.41H373.22c0.683,10.068,5.291,12.4,9.044,12.4
		c5.063,0,7.509-3.868,8.817-5.973L391.992,855.761z M385.109,847.114c-0.398-2.73-0.967-6.542-5.461-6.542
		c-3.129,0-5.348,1.536-6.258,6.542H385.109z"/>
	<path d="M411.67,845.692c0-3.356-1.081-3.413-1.991-3.413c-0.797,0-1.422,0.114-1.935,0.228v-0.91
		c2.788-0.91,5.632-1.934,8.419-3.072l0.285,0.114v5.063h0.114c2.674-4.039,4.607-5.177,6.77-5.177c1.934,0,3.071,1.194,3.071,3.072
		c0,1.422-0.796,2.503-2.161,2.503c-1.991,0-2.56-1.991-3.925-1.991s-3.868,2.844-3.868,4.664v12.799
		c0,3.925,1.934,4.153,4.835,4.266v0.854h-13.652v-0.854c3.128-0.568,4.039-0.739,4.039-3.925V845.692z"/>
	<path d="M450.407,855.761c-0.569,1.763-3.868,9.5-12.06,9.5c-6.314,0-10.637-4.665-10.637-12.742
		c0-10.524,7.054-13.994,11.604-13.994c5.347,0,9.386,2.958,10.012,10.41h-17.691c0.683,10.068,5.29,12.4,9.045,12.4
		c5.062,0,7.509-3.868,8.817-5.973L450.407,855.761z M443.523,847.114c-0.398-2.73-0.967-6.542-5.461-6.542
		c-3.128,0-5.347,1.536-6.257,6.542H443.523z"/>
	<path d="M479.472,862.302c-2.73,0.967-5.347,1.877-8.362,2.958l-0.228-0.17v-3.47h-0.114c-1.024,1.536-3.129,3.641-7.338,3.641
		c-2.219,0-10.354-1.138-10.354-12.742c0-7.452,5.404-13.994,11.775-13.994c2.446,0,4.152,0.796,6.03,2.446v-8.874
		c0-1.707,0-2.901-2.503-2.901c-0.341,0-0.91,0-1.365,0.057v-0.91c2.844-0.739,5.631-1.536,8.362-2.503l0.285,0.114v32.253
		c0,2.333,0,3.47,3.811,3.186V862.302z M470.882,845.806c-0.398-3.868-3.186-5.688-5.859-5.688c-3.186,0-7.054,2.787-7.054,10.523
		c0,8.476,4.096,11.662,7.85,11.662c2.39,0,4.608-1.365,5.063-3.413V845.806z"/>
	<path d="M511.779,840.914h-6.94v17.862c0,3.47,0.057,4.949,5.291,5.062v0.854h-14.79v-0.854c3.754-0.17,4.721-0.683,4.721-5.062
		v-17.862h-4.664v-1.82h4.664c0-3.186,0-13.254,10.239-13.254c3.186,0,5.688,1.536,5.688,3.47c0,1.65-1.308,2.389-2.446,2.389
		c-2.389,0-2.673-4.267-5.347-4.267c-3.129,0-3.413,2.958-3.413,5.063v6.599h6.997V840.914z"/>
</g>
<g>
	<path d="M518.043,863.838c3.527-0.17,4.494-0.512,4.494-4.949v-13.197c0-3.356-1.081-3.413-1.991-3.413
		c-0.796,0-1.536,0.114-2.275,0.228v-0.853c2.958-0.967,5.859-2.048,8.817-3.129l0.228,0.171v20.194
		c0,3.754,0.284,4.721,4.209,4.949v0.854h-13.481V863.838z M524.414,825.839c1.707,0,2.958,1.309,2.958,2.901
		c0,1.649-1.251,2.901-2.958,2.901c-2.048,0-2.844-1.82-2.844-2.901S522.423,825.839,524.414,825.839z"/>
	<path d="M550.011,846.83c-1.251-5.802-3.812-6.997-6.314-6.997c-3.128,0-4.323,2.218-4.323,3.697c0,1.138,0.342,2.787,2.446,4.039
		l6.144,3.641c2.787,1.706,4.778,3.299,4.778,6.712c0,4.949-4.607,7.338-8.248,7.338c-2.56,0-5.006-1.081-6.599-1.024
		c-0.683,0-0.91,0.171-1.252,0.683h-0.739v-8.874h0.91c0.683,3.015,1.764,7.964,7.338,7.964c1.935,0,4.608-0.91,4.608-4.152
		c0-1.82-1.138-3.186-2.958-4.21l-3.299-1.877c-3.527-1.991-6.655-4.096-6.655-8.305c0-3.186,2.446-6.94,7.964-6.94
		c2.503,0,4.266,1.138,5.233,1.138c0.512,0,0.796-0.398,0.967-0.626h0.626l0.228,7.793H550.011z"/>
	<path d="M582.774,864.691h-12.06v-0.854c2.787-0.284,3.868-0.568,3.868-4.949v-11.263c0-3.812-1.252-6.03-4.38-6.03
		c-1.65,0-3.868,0.853-6.201,3.583v13.709c0,4.38,1.081,4.665,3.868,4.949v0.854h-12.287v-0.854
		c3.072-0.398,3.641-0.796,3.641-4.949v-26.792c0-1.707,0-2.901-2.503-2.901c-0.341,0-0.91,0-1.081,0.057v-0.91
		c2.56-0.739,5.347-1.536,8.078-2.503l0.284,0.171v17.179h0.114c1.991-2.844,4.778-4.665,8.191-4.665
		c6.997,0,7.054,6.77,7.054,9.045v11.32c0,4.153,0.568,4.437,3.413,4.949V864.691z"/>
	<path d="M596.424,855.362c0-3.356,1.365-7.281,1.707-8.078l1.593-3.641c1.023-2.275,2.104-6.201,2.104-8.476
		c0-3.413-1.877-7.224-6.257-7.224c-2.389,0-5.291,1.593-5.291,3.47c0,1.536,2.162,2.218,2.162,4.266
		c0,0.967-0.626,2.333-2.219,2.333c-2.275,0-2.844-1.65-2.844-3.584c0-5.745,5.347-8.191,9.272-8.191
		c3.243,0,6.997,1.649,8.362,3.299c1.536,1.877,2.048,3.186,2.048,6.144c0,2.901-2.56,6.883-4.267,8.874
		c-3.128,3.641-4.607,5.916-5.404,10.808H596.424z M593.978,862.245c0-1.763,1.365-3.071,3.015-3.071
		c1.763,0,3.128,1.422,3.128,3.071c0,2.048-1.763,2.901-3.128,2.901C595.798,865.146,593.978,864.407,593.978,862.245z"/>
</g>
<g>
	<path d="M54.524,1138.509c4.835-0.113,5.518-1.081,5.518-5.119v-25.257c0-4.21-0.797-4.893-5.518-5.12v-1.081h16.895v1.081
		c-4.153,0.171-5.575,0.569-5.575,5.12v25.257c0,4.437,1.365,5.006,5.575,5.119v1.081H54.524V1138.509z"/>
	<path d="M103.726,1121.729c-1.251-5.803-3.811-6.997-6.314-6.997c-3.129,0-4.323,2.218-4.323,3.697
		c0,1.138,0.341,2.787,2.446,4.039l6.144,3.641c2.788,1.706,4.778,3.299,4.778,6.712c0,4.949-4.608,7.338-8.249,7.338
		c-2.56,0-5.006-1.08-6.599-1.023c-0.683,0-0.91,0.171-1.251,0.683h-0.74v-8.874h0.91c0.683,3.015,1.763,7.964,7.338,7.964
		c1.934,0,4.607-0.91,4.607-4.152c0-1.82-1.138-3.186-2.958-4.21l-3.299-1.877c-3.527-1.991-6.656-4.096-6.656-8.305
		c0-3.186,2.446-6.94,7.964-6.94c2.503,0,4.267,1.138,5.233,1.138c0.512,0,0.797-0.398,0.967-0.626h0.625l0.228,7.794H103.726z"/>
	<path d="M132.906,1130.659c-0.569,1.763-3.868,9.499-12.06,9.499c-6.314,0-10.637-4.664-10.637-12.742
		c0-10.523,7.054-13.993,11.604-13.993c5.347,0,9.386,2.958,10.012,10.41h-17.691c0.683,10.068,5.29,12.4,9.045,12.4
		c5.062,0,7.509-3.868,8.817-5.973L132.906,1130.659z M126.022,1122.013c-0.398-2.73-0.967-6.542-5.461-6.542
		c-3.128,0-5.347,1.536-6.257,6.542H126.022z"/>
	<path d="M158.16,1130.659c-0.569,1.763-3.868,9.499-12.06,9.499c-6.314,0-10.637-4.664-10.637-12.742
		c0-10.523,7.054-13.993,11.604-13.993c5.347,0,9.386,2.958,10.012,10.41h-17.691c0.683,10.068,5.29,12.4,9.045,12.4
		c5.062,0,7.509-3.868,8.817-5.973L158.16,1130.659z M151.276,1122.013c-0.398-2.73-0.967-6.542-5.461-6.542
		c-3.128,0-5.347,1.536-6.257,6.542H151.276z"/>
	<path d="M198.658,1137.314c-2.389,2.787-4.153,2.844-5.063,2.844c-1.023,0-3.413-0.057-3.697-4.152
		c-2.104,1.877-5.12,4.152-8.248,4.152c-3.072,0-6.03-2.104-6.03-5.916c0-5.688,4.949-7.622,14.222-11.263v-3.47
		c0-4.096-2.674-4.722-4.38-4.722c-1.877,0-4.039,1.024-4.039,2.787c0,0.854,0.284,1.707,0.284,2.219
		c0,1.194-1.081,2.446-2.56,2.446c-1.764,0-2.446-1.593-2.446-2.503c0-2.275,2.674-6.314,9.272-6.314
		c8.476,0,8.476,5.688,8.476,9.102v11.093c0,1.649,0,3.299,1.649,3.299c1.195,0,1.935-0.568,2.56-1.08V1137.314z M189.841,1124.345
		c-8.59,2.845-9.216,6.03-9.216,7.964v0.113c0,2.674,1.65,4.438,3.755,4.438c1.251,0,3.015-0.739,3.526-1.023
		c1.764-0.854,1.935-1.536,1.935-3.243V1124.345z"/>
	<path d="M252.467,1113.992v0.853c-1.194,0.398-1.479,0.968-2.332,3.072l-7.851,19.682c-0.91,2.219-1.138,2.788-1.593,2.788
		s-0.568-0.398-1.365-2.446l-5.176-13.425l-6.371,13.652c-0.796,1.593-1.081,2.219-1.422,2.219c-0.398,0-0.683-0.569-1.479-2.504
		l-7.68-19.454c-1.138-2.73-1.593-3.47-3.015-3.584v-0.853h10.239v0.853c-1.309,0.114-2.617,0.342-2.617,1.935
		c0,1.99,3.356,9.215,5.973,16.496l5.176-11.32c-2.104-6.428-2.73-6.826-5.062-7.11v-0.853h11.548v0.853
		c-1.877,0.284-3.3,0.455-3.3,2.104c0,1.024,0.342,1.65,1.195,3.869l4.551,12.173l5.12-12.628c0.626-1.423,0.967-2.959,0.967-3.641
		c0-1.365-1.138-1.594-2.503-1.878v-0.853H252.467z"/>
	<path d="M281.758,1139.59h-12.06v-0.854c2.788-0.284,3.868-0.568,3.868-4.949v-11.263c0-3.812-1.251-6.03-4.38-6.03
		c-1.649,0-3.868,0.854-6.2,3.584v13.709c0,4.381,1.081,4.665,3.868,4.949v0.854h-12.287v-0.854
		c3.071-0.398,3.641-0.796,3.641-4.949v-26.792c0-1.707,0-2.901-2.503-2.901c-0.342,0-0.91,0-1.081,0.057v-0.91
		c2.56-0.739,5.347-1.535,8.078-2.503l0.285,0.171v17.18h0.113c1.991-2.845,4.778-4.665,8.191-4.665c6.997,0,7.054,6.77,7.054,9.045
		v11.319c0,4.153,0.569,4.438,3.413,4.949V1139.59z"/>
	<path d="M283.405,1138.736c3.527-0.17,4.494-0.512,4.494-4.949v-13.197c0-3.355-1.081-3.412-1.991-3.412
		c-0.796,0-1.536,0.113-2.275,0.227v-0.853c2.958-0.968,5.859-2.048,8.817-3.129l0.228,0.171v20.193
		c0,3.755,0.284,4.722,4.209,4.949v0.854h-13.481V1138.736z M289.776,1100.737c1.707,0,2.958,1.309,2.958,2.901
		c0,1.649-1.251,2.901-2.958,2.901c-2.048,0-2.844-1.82-2.844-2.901S287.785,1100.737,289.776,1100.737z"/>
	<path d="M312.813,1115.812h-5.746v16.269c0,1.764,0,5.12,2.901,5.12c1.82,0,2.845-1.252,3.47-1.991l0.74,0.626
		c-1.365,2.445-4.039,4.322-6.656,4.322c-2.901,0-5.233-1.535-5.233-7.224v-17.122h-3.015c-0.113-0.058-0.228-0.229-0.228-0.398
		c0-0.683,1.252-1.024,2.503-2.275c2.162-2.219,3.015-3.471,5.12-6.485c0.398,0,0.398,0.284,0.398,0.739v6.6h5.746V1115.812z"/>
	<path d="M338.239,1130.659c-0.569,1.763-3.868,9.499-12.06,9.499c-6.314,0-10.638-4.664-10.638-12.742
		c0-10.523,7.054-13.993,11.604-13.993c5.348,0,9.386,2.958,10.012,10.41h-17.691c0.683,10.068,5.291,12.4,9.044,12.4
		c5.063,0,7.509-3.868,8.817-5.973L338.239,1130.659z M331.356,1122.013c-0.398-2.73-0.967-6.542-5.461-6.542
		c-3.129,0-5.348,1.536-6.258,6.542H331.356z"/>
	<path d="M381.524,1137.201c-2.73,0.967-5.347,1.877-8.362,2.957l-0.228-0.17v-3.471h-0.114c-1.024,1.536-3.129,3.641-7.338,3.641
		c-2.219,0-10.354-1.137-10.354-12.742c0-7.451,5.404-13.993,11.775-13.993c2.446,0,4.152,0.796,6.03,2.446v-8.874
		c0-1.707,0-2.901-2.503-2.901c-0.341,0-0.91,0-1.365,0.057v-0.91c2.844-0.739,5.631-1.535,8.362-2.503l0.285,0.114v32.254
		c0,2.332,0,3.47,3.811,3.186V1137.201z M372.935,1120.704c-0.398-3.868-3.186-5.688-5.859-5.688c-3.186,0-7.054,2.787-7.054,10.523
		c0,8.477,4.096,11.662,7.85,11.662c2.39,0,4.608-1.365,5.063-3.414V1120.704z"/>
	<path d="M408.77,1126.62c0,5.632-3.982,13.538-12.628,13.538c-7.338,0-12.458-5.858-12.458-13.538
		c0-6.997,4.665-13.197,12.287-13.197C403.423,1113.423,408.77,1118.372,408.77,1126.62z M403.65,1128.27
		c0-7.054-2.901-13.254-8.135-13.254c-3.583,0-6.712,2.958-6.712,8.874c0,4.21,1.308,14.677,8.134,14.677
		C399.839,1138.566,403.65,1136.404,403.65,1128.27z"/>
	<path d="M432.488,1117.519c0.569,1.309,1.081,2.39,1.081,5.233c0,6.144-5.859,8.362-9.045,8.362c-0.683,0-2.73-0.284-3.071-0.284
		c-1.138,0.113-3.413,2.445-3.413,3.583c0,1.309,2.73,1.479,4.437,1.536l7.338,0.342c6.086,0.284,6.883,4.493,6.883,6.086
		c0,6.428-9.443,9.613-14.562,9.613c-5.803,0-10.069-2.502-10.069-5.518c0-2.56,2.673-4.892,5.575-6.939
		c-1.536-0.74-3.015-1.422-3.015-3.016c0-0.967,0-1.706,5.062-6.2c-3.356-1.479-5.29-4.096-5.29-7.395c0-6.77,5.461-9.5,9.784-9.5
		c1.991,0,3.242,0.455,5.518,1.309c1.194,0.455,2.219,0.568,3.129,0.568h4.38v2.219H432.488z M424.582,1148.748
		c6.656,0,10.524-2.503,10.524-5.518c0-2.56-2.788-2.674-6.997-2.787c-5.347-0.171-6.599-0.171-9.272-0.74
		c-1.763,2.105-2.787,3.3-2.787,5.006C416.049,1146.473,418.097,1148.748,424.582,1148.748z M425.037,1129.691
		c3.868,0,4.153-4.209,4.153-5.461c0-1.592-0.91-9.215-5.803-9.215c-2.048,0-4.266,1.309-4.266,5.119
		C419.121,1124.629,420.6,1129.691,425.037,1129.691z"/>
	<path d="M442.896,1137.144c0-1.82,1.422-3.242,3.128-3.242c1.707,0,3.186,1.479,3.186,3.242c0,2.104-1.991,3.072-3.186,3.072
		C444.83,1140.216,442.896,1139.306,442.896,1137.144z"/>
</g>
<g>
	<path d="M54.41,1271.274c4.323-0.228,5.006-1.138,5.006-5.119v-25.257c0-4.21-0.626-4.778-5.006-5.12v-1.081h15.359
		c13.652,0,22.697,6.201,22.697,18.943c0,7.565-4.494,18.715-21.9,18.715H54.41V1271.274z M65.218,1267.918
		c0,1.935,0.683,2.333,3.413,2.333c3.641,0,17.634,0,17.634-16.554c0-4.778-1.365-9.386-5.29-12.913
		c-2.73-2.446-5.916-3.981-13.084-3.981c-2.673,0-2.673,1.08-2.673,2.219V1267.918z"/>
	<path d="M121.302,1259.386c0,5.632-3.982,13.538-12.628,13.538c-7.338,0-12.458-5.858-12.458-13.538
		c0-6.997,4.665-13.197,12.287-13.197C115.955,1246.188,121.302,1251.138,121.302,1259.386z M116.183,1261.035
		c0-7.054-2.901-13.254-8.135-13.254c-3.583,0-6.712,2.958-6.712,8.874c0,4.21,1.308,14.677,8.134,14.677
		C112.371,1271.332,116.183,1269.17,116.183,1261.035z"/>
	<path d="M164.247,1247.61c-0.74,0.114-1.877,0.228-2.73,2.56l-8.761,23.209c-2.901,7.623-5.404,11.377-9.67,11.377
		c-2.845,0-4.153-1.82-4.153-3.299c0-0.342,0.114-2.503,2.73-2.503c1.536,0,3.299,1.024,4.039,1.024
		c2.958,0,5.233-7.851,5.233-8.761c0-0.854-2.73-6.087-3.526-7.851l-6.485-13.993c-0.683-1.422-2.161-1.706-2.901-1.82v-0.796
		h11.718v0.853c-1.309,0.058-3.299,0.114-3.299,1.649c0,0.74,0.398,1.65,0.569,2.049l6.542,14.392l4.437-12.629
		c0.569-1.536,1.309-3.356,1.309-3.868c0-1.08-0.91-1.649-2.73-1.593v-0.853h7.68V1247.61z"/>
	<path d="M192.402,1259.386c0,5.632-3.982,13.538-12.628,13.538c-7.338,0-12.458-5.858-12.458-13.538
		c0-6.997,4.664-13.197,12.287-13.197C187.055,1246.188,192.402,1251.138,192.402,1259.386z M187.283,1261.035
		c0-7.054-2.901-13.254-8.134-13.254c-3.584,0-6.713,2.958-6.713,8.874c0,4.21,1.309,14.677,8.135,14.677
		C183.472,1271.332,187.283,1269.17,187.283,1261.035z"/>
	<path d="M221.354,1270.308c-3.072,0.796-5.233,1.593-7.907,2.56l-0.114-0.113v-4.722l-2.446,2.446
		c-2.219,2.219-4.949,2.445-5.973,2.445c-2.333,0-6.769-1.365-6.769-7.395v-14.335c0-3.413-1.82-3.526-3.527-3.641v-0.796h8.306
		v18.544c0,0.796,0.512,4.323,4.266,4.323c1.707,0,3.413-0.797,4.949-2.048c0.512-0.455,0.91-1.024,0.91-2.901v-13.367
		c0-2.275-0.228-3.471-4.209-3.584v-0.967h8.987v19.511c0,2.048,0.114,3.356,3.527,3.243V1270.308z"/>
	<path d="M253.832,1254.494c-1.251-5.803-3.812-6.997-6.314-6.997c-3.128,0-4.323,2.218-4.323,3.697
		c0,1.138,0.342,2.787,2.446,4.039l6.144,3.641c2.787,1.706,4.778,3.299,4.778,6.712c0,4.949-4.607,7.338-8.248,7.338
		c-2.56,0-5.006-1.08-6.599-1.023c-0.683,0-0.91,0.171-1.252,0.683h-0.739v-8.874h0.91c0.683,3.015,1.764,7.964,7.338,7.964
		c1.935,0,4.608-0.91,4.608-4.152c0-1.82-1.138-3.186-2.958-4.21l-3.299-1.877c-3.527-1.991-6.655-4.096-6.655-8.305
		c0-3.186,2.446-6.94,7.964-6.94c2.503,0,4.266,1.138,5.233,1.138c0.512,0,0.796-0.398,0.967-0.626h0.626l0.228,7.794H253.832z"/>
	<path d="M283.012,1263.425c-0.569,1.763-3.868,9.499-12.06,9.499c-6.314,0-10.638-4.664-10.638-12.742
		c0-10.523,7.054-13.993,11.604-13.993c5.348,0,9.386,2.958,10.012,10.41H264.24c0.683,10.068,5.291,12.4,9.044,12.4
		c5.063,0,7.509-3.868,8.817-5.973L283.012,1263.425z M276.129,1254.778c-0.398-2.73-0.967-6.542-5.461-6.542
		c-3.129,0-5.348,1.536-6.258,6.542H276.129z"/>
	<path d="M308.266,1263.425c-0.569,1.763-3.868,9.499-12.06,9.499c-6.314,0-10.638-4.664-10.638-12.742
		c0-10.523,7.054-13.993,11.604-13.993c5.348,0,9.386,2.958,10.012,10.41h-17.691c0.683,10.068,5.291,12.4,9.044,12.4
		c5.063,0,7.509-3.868,8.817-5.973L308.266,1263.425z M301.383,1254.778c-0.398-2.73-0.967-6.542-5.461-6.542
		c-3.129,0-5.348,1.536-6.258,6.542H301.383z"/>
	<path d="M338.126,1248.578h-5.745v16.269c0,1.764,0,5.12,2.901,5.12c1.82,0,2.844-1.252,3.47-1.991l0.739,0.626
		c-1.365,2.445-4.039,4.322-6.655,4.322c-2.901,0-5.233-1.535-5.233-7.224v-17.122h-3.015c-0.114-0.058-0.228-0.229-0.228-0.398
		c0-0.683,1.251-1.024,2.503-2.275c2.161-2.219,3.015-3.471,5.119-6.485c0.398,0,0.398,0.284,0.398,0.739v6.6h5.745V1248.578z"/>
	<path d="M367.136,1272.355h-12.06v-0.854c2.788-0.284,3.868-0.568,3.868-4.949v-11.263c0-3.812-1.251-6.03-4.38-6.03
		c-1.649,0-3.868,0.854-6.2,3.584v13.709c0,4.381,1.081,4.665,3.868,4.949v0.854h-12.287v-0.854
		c3.071-0.398,3.641-0.796,3.641-4.949v-26.792c0-1.707,0-2.901-2.503-2.901c-0.342,0-0.91,0-1.081,0.057v-0.91
		c2.56-0.739,5.347-1.535,8.078-2.503l0.285,0.171v17.18h0.113c1.991-2.845,4.778-4.665,8.191-4.665c6.997,0,7.054,6.77,7.054,9.045
		v11.319c0,4.153,0.569,4.438,3.413,4.949V1272.355z"/>
	<path d="M391.992,1263.425c-0.569,1.763-3.868,9.499-12.06,9.499c-6.314,0-10.638-4.664-10.638-12.742
		c0-10.523,7.054-13.993,11.604-13.993c5.348,0,9.386,2.958,10.012,10.41H373.22c0.683,10.068,5.291,12.4,9.044,12.4
		c5.063,0,7.509-3.868,8.817-5.973L391.992,1263.425z M385.109,1254.778c-0.398-2.73-0.967-6.542-5.461-6.542
		c-3.129,0-5.348,1.536-6.258,6.542H385.109z"/>
	<path d="M446.825,1246.758v0.853c-1.194,0.398-1.479,0.968-2.332,3.072l-7.851,19.682c-0.91,2.219-1.138,2.788-1.593,2.788
		s-0.568-0.398-1.365-2.446l-5.176-13.425l-6.371,13.652c-0.796,1.593-1.081,2.219-1.422,2.219c-0.398,0-0.683-0.569-1.479-2.504
		l-7.68-19.454c-1.138-2.73-1.593-3.47-3.015-3.584v-0.853h10.239v0.853c-1.309,0.114-2.617,0.342-2.617,1.935
		c0,1.99,3.356,9.215,5.973,16.496l5.176-11.32c-2.104-6.428-2.73-6.826-5.062-7.11v-0.853h11.548v0.853
		c-1.877,0.284-3.3,0.455-3.3,2.104c0,1.024,0.342,1.65,1.195,3.869l4.551,12.173l5.12-12.628c0.626-1.423,0.967-2.959,0.967-3.641
		c0-1.365-1.138-1.594-2.503-1.878v-0.853H446.825z"/>
	<path d="M476.116,1272.355h-12.06v-0.854c2.788-0.284,3.868-0.568,3.868-4.949v-11.263c0-3.812-1.251-6.03-4.38-6.03
		c-1.649,0-3.868,0.854-6.2,3.584v13.709c0,4.381,1.081,4.665,3.868,4.949v0.854h-12.287v-0.854
		c3.071-0.398,3.641-0.796,3.641-4.949v-26.792c0-1.707,0-2.901-2.503-2.901c-0.342,0-0.91,0-1.081,0.057v-0.91
		c2.56-0.739,5.347-1.535,8.078-2.503l0.285,0.171v17.18h0.113c1.991-2.845,4.778-4.665,8.191-4.665c6.997,0,7.054,6.77,7.054,9.045
		v11.319c0,4.153,0.569,4.438,3.413,4.949V1272.355z"/>
	<path d="M477.764,1271.502c3.527-0.17,4.494-0.512,4.494-4.949v-13.197c0-3.355-1.081-3.412-1.991-3.412
		c-0.796,0-1.536,0.113-2.275,0.227v-0.853c2.958-0.968,5.859-2.048,8.817-3.129l0.228,0.171v20.193
		c0,3.755,0.284,4.722,4.209,4.949v0.854h-13.481V1271.502z M484.135,1233.503c1.707,0,2.958,1.309,2.958,2.901
		c0,1.649-1.251,2.901-2.958,2.901c-2.048,0-2.844-1.82-2.844-2.901S482.144,1233.503,484.135,1233.503z"/>
	<path d="M507.172,1248.578h-5.746v16.269c0,1.764,0,5.12,2.901,5.12c1.82,0,2.845-1.252,3.47-1.991l0.74,0.626
		c-1.365,2.445-4.039,4.322-6.656,4.322c-2.901,0-5.233-1.535-5.233-7.224v-17.122h-3.015c-0.113-0.058-0.228-0.229-0.228-0.398
		c0-0.683,1.252-1.024,2.503-2.275c2.162-2.219,3.015-3.471,5.12-6.485c0.398,0,0.398,0.284,0.398,0.739v6.6h5.746V1248.578z"/>
	<path d="M532.598,1263.425c-0.569,1.763-3.868,9.499-12.06,9.499c-6.314,0-10.638-4.664-10.638-12.742
		c0-10.523,7.054-13.993,11.604-13.993c5.348,0,9.386,2.958,10.012,10.41h-17.691c0.683,10.068,5.291,12.4,9.044,12.4
		c5.063,0,7.509-3.868,8.817-5.973L532.598,1263.425z M525.715,1254.778c-0.398-2.73-0.967-6.542-5.461-6.542
		c-3.129,0-5.348,1.536-6.258,6.542H525.715z"/>
	<path d="M575.883,1269.967c-2.73,0.967-5.347,1.877-8.362,2.957l-0.228-0.17v-3.471h-0.114c-1.024,1.536-3.129,3.641-7.338,3.641
		c-2.219,0-10.354-1.137-10.354-12.742c0-7.451,5.404-13.993,11.775-13.993c2.446,0,4.152,0.796,6.03,2.446v-8.874
		c0-1.707,0-2.901-2.503-2.901c-0.341,0-0.91,0-1.365,0.057v-0.91c2.844-0.739,5.631-1.535,8.362-2.503l0.285,0.114v32.254
		c0,2.332,0,3.47,3.811,3.186V1269.967z M567.293,1253.47c-0.398-3.868-3.186-5.688-5.859-5.688c-3.186,0-7.054,2.787-7.054,10.523
		c0,8.477,4.096,11.662,7.85,11.662c2.39,0,4.608-1.365,5.063-3.414V1253.47z"/>
	<path d="M603.128,1259.386c0,5.632-3.982,13.538-12.628,13.538c-7.338,0-12.458-5.858-12.458-13.538
		c0-6.997,4.665-13.197,12.287-13.197C597.781,1246.188,603.128,1251.138,603.128,1259.386z M598.009,1261.035
		c0-7.054-2.901-13.254-8.135-13.254c-3.583,0-6.712,2.958-6.712,8.874c0,4.21,1.308,14.677,8.134,14.677
		C594.197,1271.332,598.009,1269.17,598.009,1261.035z"/>
	<path d="M626.847,1250.284c0.569,1.309,1.081,2.39,1.081,5.233c0,6.144-5.859,8.362-9.045,8.362c-0.683,0-2.73-0.284-3.071-0.284
		c-1.138,0.113-3.413,2.445-3.413,3.583c0,1.309,2.73,1.479,4.437,1.536l7.338,0.342c6.086,0.284,6.883,4.493,6.883,6.086
		c0,6.428-9.443,9.613-14.562,9.613c-5.803,0-10.069-2.502-10.069-5.518c0-2.56,2.673-4.892,5.575-6.939
		c-1.536-0.74-3.015-1.422-3.015-3.016c0-0.967,0-1.706,5.062-6.2c-3.356-1.479-5.29-4.096-5.29-7.395c0-6.77,5.461-9.5,9.784-9.5
		c1.991,0,3.242,0.455,5.518,1.309c1.194,0.455,2.219,0.568,3.129,0.568h4.38v2.219H626.847z M618.94,1281.514
		c6.656,0,10.524-2.503,10.524-5.518c0-2.56-2.788-2.674-6.997-2.787c-5.347-0.171-6.599-0.171-9.272-0.74
		c-1.763,2.105-2.787,3.3-2.787,5.006C610.407,1279.238,612.455,1281.514,618.94,1281.514z M619.395,1262.457
		c3.868,0,4.153-4.209,4.153-5.461c0-1.592-0.91-9.215-5.803-9.215c-2.048,0-4.266,1.309-4.266,5.119
		C613.479,1257.395,614.958,1262.457,619.395,1262.457z"/>
	<path d="M646.186,1263.026c0-3.356,1.365-7.281,1.706-8.077l1.593-3.641c1.024-2.275,2.105-6.201,2.105-8.477
		c0-3.413-1.877-7.225-6.257-7.225c-2.389,0-5.29,1.594-5.29,3.471c0,1.535,2.161,2.219,2.161,4.266
		c0,0.968-0.625,2.333-2.218,2.333c-2.275,0-2.844-1.649-2.844-3.584c0-5.745,5.347-8.191,9.272-8.191
		c3.242,0,6.997,1.649,8.362,3.3c1.536,1.877,2.048,3.186,2.048,6.143c0,2.901-2.56,6.884-4.266,8.875
		c-3.129,3.641-4.608,5.916-5.404,10.808H646.186z M643.739,1269.909c0-1.763,1.365-3.071,3.015-3.071
		c1.764,0,3.129,1.422,3.129,3.071c0,2.048-1.764,2.901-3.129,2.901C645.56,1272.811,643.739,1272.071,643.739,1269.909z"/>
</g>
</svg>
