<?xml version="1.0" encoding="iso-8859-1"?>
<!-- Generator: Adobe Illustrator 15.1.0, SVG Export Plug-In . SVG Version: 6.00 Build 0)  -->
<!DOCTYPE svg PUBLIC "-//W3C//DTD SVG 1.1//EN" "http://www.w3.org/Graphics/SVG/1.1/DTD/svg11.dtd">
<svg version="1.1" xmlns="http://www.w3.org/2000/svg" xmlns:xlink="http://www.w3.org/1999/xlink" x="0px" y="0px" width="2048px"
	 height="1536px" viewBox="0 0 2048 1536" enable-background="new 0 0 2048 1536" xml:space="preserve">
<g id="Art">
	
		<image overflow="visible" width="2048" height="1536" xlink:href="battery/stims/wiatiii-mathproblemsolving-item24-0.svg-components/0.jpeg">	</image>
</g>
<g id="touch05" class="transparent">
	<polyline display="inline" fill="none" points="1605.553,654.332 1830.91,654.332 1830.91,884 1600.91,884 1605.553,654.332 	"/>
	<ellipse display="inline" opacity="0.5" fill="#666666" cx="1835.226" cy="768.834" rx="115" ry="114.834"/>
</g>
<g id="touch04" class="transparent">
	<polyline display="inline" fill="none" points="1315.447,654.332 1540.805,654.332 1540.805,884 1310.805,884 1315.447,654.332 	
		"/>
	<ellipse display="inline" opacity="0.5" fill="#666666" cx="1425.805" cy="768.834" rx="115" ry="114.834"/>
</g>
<g id="touch03" class="transparent">
	<polyline display="inline" fill="none" points="913.553,654.332 1138.91,654.332 1138.91,884 908.91,884 913.553,654.332 	"/>
	<ellipse display="inline" opacity="0.5" fill="#666666" cx="1023.91" cy="768.834" rx="115" ry="114.834"/>
</g>
<g id="touch02" class="transparent">
	<polyline display="inline" fill="none" points="511.974,654.332 737.332,654.332 737.332,884 507.332,884 511.974,654.332 	"/>
	<ellipse display="inline" opacity="0.5" fill="#666666" cx="622.332" cy="768.834" rx="115" ry="114.834"/>
</g>
<g id="touch01" class="transparent">
	<polyline display="inline" fill="none" points="111.921,654.332 337.278,654.332 337.278,884 107.278,884 111.921,654.332 	"/>
	<ellipse display="inline" opacity="0.5" fill="#666666" cx="222.278" cy="768.834" rx="115" ry="114.834"/>
</g>
</svg>
