<?xml version="1.0" encoding="iso-8859-1"?>
<!-- Generator: Adobe Illustrator 15.1.0, SVG Export Plug-In . SVG Version: 6.00 Build 0)  -->
<!DOCTYPE svg PUBLIC "-//W3C//DTD SVG 1.1//EN" "http://www.w3.org/Graphics/SVG/1.1/DTD/svg11.dtd">
<svg version="1.1" xmlns="http://www.w3.org/2000/svg" xmlns:xlink="http://www.w3.org/1999/xlink" x="0px" y="0px" width="2048px"
	 height="1536px" viewBox="0 0 2048 1536" enable-background="new 0 0 2048 1536" xml:space="preserve">
<g id="Art">
	
		<image overflow="visible" width="2048" height="1536" xlink:href="battery/stims/wiatiii-mathproblemsolving-item60-0.svg-components/0.jpeg">	</image>
</g>
<g id="touch09" class="transparent">
	<polyline display="inline" fill="none" points="1731.053,669.288 1927.016,669.288 1927.016,869 1727.016,869 1731.053,669.288 	
		"/>
	<ellipse display="inline" opacity="0.5" fill="#666666" cx="1827.016" cy="768.855" rx="100" ry="99.855"/>
</g>
<g id="touch08" class="transparent">
	<polyline display="inline" fill="none" points="1492.789,669.288 1688.752,669.288 1688.752,869 1488.752,869 1492.789,669.288 	
		"/>
	<ellipse display="inline" opacity="0.5" fill="#666666" cx="1588.752" cy="768.855" rx="100" ry="99.855"/>
</g>
<g id="touch07" class="transparent">
	<polyline display="inline" fill="none" points="1295.421,669.288 1491.384,669.288 1491.384,869 1291.384,869 1295.421,669.288 	
		"/>
	<ellipse display="inline" opacity="0.5" fill="#666666" cx="1391.384" cy="768.855" rx="100" ry="99.855"/>
</g>
<g id="touch06" class="transparent">
	<polyline display="inline" fill="none" points="1097.052,669.288 1293.015,669.288 1293.015,869 1093.015,869 1097.052,669.288 	
		"/>
	<ellipse display="inline" opacity="0.5" fill="#666666" cx="1193.015" cy="768.855" rx="100" ry="99.855"/>
</g>
<g id="touch05" class="transparent">
	<polyline display="inline" fill="none" points="899.263,669.288 1095.226,669.288 1095.226,869 895.226,869 899.263,669.288 	"/>
	<ellipse display="inline" opacity="0.5" fill="#666666" cx="995.226" cy="768.855" rx="100" ry="99.855"/>
</g>
<g id="touch04" class="transparent">
	<circle display="inline" opacity="0.5" fill="#666666" cx="795.963" cy="768.834" r="100"/>
</g>
<g id="touch03" class="transparent">
	<circle display="inline" opacity="0.5" fill="#666666" cx="595.331" cy="768.834" r="100"/>
</g>
<g id="touch02" class="transparent">
	<polyline display="inline" fill="none" points="288.342,654.332 513.7,654.332 513.7,884 283.7,884 288.342,654.332 	"/>
	<circle display="inline" opacity="0.5" fill="#666666" cx="391.7" cy="768.834" r="100"/>
</g>
<g id="touch01" class="transparent">
	<polyline display="inline" fill="none" points="95.947,669.288 291.91,669.288 291.91,869 91.91,869 95.947,669.288 	"/>
	<ellipse display="inline" opacity="0.5" fill="#666666" cx="191.91" cy="768.855" rx="100" ry="99.855"/>
</g>
</svg>
