<?xml version="1.0" encoding="iso-8859-1"?>
<!-- Generator: Adobe Illustrator 15.1.0, SVG Export Plug-In . SVG Version: 6.00 Build 0)  -->
<!DOCTYPE svg PUBLIC "-//W3C//DTD SVG 1.1//EN" "http://www.w3.org/Graphics/SVG/1.1/DTD/svg11.dtd">
<svg version="1.1" xmlns="http://www.w3.org/2000/svg" xmlns:xlink="http://www.w3.org/1999/xlink" x="0px" y="0px" width="2048px"
	 height="1536px" viewBox="0 0 2048 1536" enable-background="new 0 0 2048 1536" xml:space="preserve">
<g id="Art">
	
		<image overflow="visible" width="2048" height="1536" xlink:href="battery/stims/wiatiii-earlyreadingskills-item12-0.svg-components/0.jpeg">	</image>
</g>
<g id="touch06">
	<polyline fill="none" points="1768.553,654.332 1993.91,654.332 1993.91,884 1763.91,884 1768.553,654.332 	"/>
	<ellipse opacity="0.5" fill="#666666" cx="1878.91" cy="768.834" rx="115" ry="114.834"/>
</g>
<g id="touch05">
	<polyline fill="none" points="1468.553,654.332 1693.91,654.332 1693.91,884 1463.91,884 1468.553,654.332 	"/>
	<ellipse opacity="0.5" fill="#666666" cx="1578.91" cy="768.834" rx="115" ry="114.834"/>
</g>
<g id="touch04">
	<polyline fill="none" points="1138.553,654.332 1363.91,654.332 1363.91,884 1133.91,884 1138.553,654.332 	"/>
	<ellipse opacity="0.5" fill="#666666" cx="1248.91" cy="768.834" rx="115" ry="114.834"/>
</g>
<g id="touch03">
	<polyline fill="none" points="805.553,654.332 1030.91,654.332 1030.91,884 800.91,884 805.553,654.332 	"/>
	<ellipse opacity="0.5" fill="#666666" cx="915.91" cy="768.834" rx="115" ry="114.834"/>
</g>
<g id="touch02">
	<polyline fill="none" points="436.553,654.332 661.91,654.332 661.91,884 431.91,884 436.553,654.332 	"/>
	<ellipse opacity="0.5" fill="#666666" cx="546.91" cy="768.834" rx="115" ry="114.834"/>
</g>
<g id="touch01">
	<polyline fill="none" points="70.553,654.332 295.91,654.332 295.91,884 65.91,884 70.553,654.332 	"/>
	<ellipse opacity="0.5" fill="#666666" cx="180.91" cy="768.834" rx="115" ry="114.834"/>
</g>
</svg>
