<?xml version="1.0" encoding="iso-8859-1"?>
<!-- Generator: Adobe Illustrator 15.1.0, SVG Export Plug-In . SVG Version: 6.00 Build 0)  -->
<!DOCTYPE svg PUBLIC "-//W3C//DTD SVG 1.1//EN" "http://www.w3.org/Graphics/SVG/1.1/DTD/svg11.dtd">
<svg version="1.1" xmlns="http://www.w3.org/2000/svg" xmlns:xlink="http://www.w3.org/1999/xlink" x="0px" y="0px" width="2048px"
	 height="1536px" viewBox="0 0 2048 1536" enable-background="new 0 0 2048 1536" xml:space="preserve">
<g id="Art">
	
		<image overflow="visible" width="2048" height="1536" xlink:href="battery/stims/wiatiii-earlyreadingskills-item27-0.svg-components/0.jpeg">	</image>
</g>
<g id="touch05">
	<polyline fill="none" points="1751.553,654.332 1976.91,654.332 1976.91,884 1746.91,884 1751.553,654.332 	"/>
	<ellipse opacity="0.5" fill="#666666" cx="1861.91" cy="768.834" rx="115" ry="114.834"/>
</g>
<g id="touch04">
	<polyline fill="none" points="1340.553,654.332 1565.91,654.332 1565.91,884 1335.91,884 1340.553,654.332 	"/>
	<ellipse opacity="0.5" fill="#666666" cx="1450.91" cy="768.834" rx="115" ry="114.834"/>
</g>
<g id="touch03">
	<polyline fill="none" points="913.553,654.332 1138.91,654.332 1138.91,884 908.91,884 913.553,654.332 	"/>
	<ellipse opacity="0.5" fill="#666666" cx="1023.91" cy="768.834" rx="115" ry="114.834"/>
</g>
<g id="touch02">
	<polyline fill="none" points="458.553,654.332 683.91,654.332 683.91,884 453.91,884 458.553,654.332 	"/>
	<ellipse opacity="0.5" fill="#666666" cx="568.91" cy="768.834" rx="115" ry="114.834"/>
</g>
<g id="touch01">
	<polyline fill="none" points="46.553,654.332 271.91,654.332 271.91,884 41.91,884 46.553,654.332 	"/>
	<ellipse opacity="0.5" fill="#666666" cx="156.91" cy="768.834" rx="115" ry="114.834"/>
</g>
</svg>
