<?xml version="1.0" encoding="iso-8859-1"?>
<!-- Generator: Adobe Illustrator 15.1.0, SVG Export Plug-In . SVG Version: 6.00 Build 0)  -->
<!DOCTYPE svg PUBLIC "-//W3C//DTD SVG 1.1//EN" "http://www.w3.org/Graphics/SVG/1.1/DTD/svg11.dtd">
<svg version="1.1" xmlns="http://www.w3.org/2000/svg" xmlns:xlink="http://www.w3.org/1999/xlink" x="0px" y="0px" width="2048px"
	 height="1536px" viewBox="0 0 2048 1536" enable-background="new 0 0 2048 1536" xml:space="preserve">
<g id="Art">
	
		<image overflow="visible" width="2048" height="1536" xlink:href="battery/stims/wiatiii-earlyreadingskills-item19-0.svg-components/0.jpeg">	</image>
</g>
<g id="touch03">
	<g>
		<polygon fill="none" points="1983.411,1035.74 1508.411,1035.74 1517.998,560.74 1983.411,560.74 		"/>
		<circle opacity="0.5" fill="#666666" cx="1745.911" cy="798.24" r="237.5"/>
	</g>
</g>
<g id="touch02">
	<g>
		<polygon fill="none" points="1393.077,1235.74 518.077,1235.74 535.739,360.74 1393.077,360.74 		"/>
		<path opacity="0.5" fill="#666666" d="M1393.077,798.24c0,241.628-195.876,437.5-437.5,437.5
			c-241.625,0-437.5-195.872-437.5-437.5c0-241.625,195.875-437.5,437.5-437.5C1197.201,360.74,1393.077,556.615,1393.077,798.24z"
			/>
	</g>
</g>
<g id="touch01">
	<g>
		<polygon fill="none" points="504.077,1035.74 29.077,1035.74 38.664,560.74 504.077,560.74 		"/>
		<circle opacity="0.5" fill="#666666" cx="266.577" cy="798.24" r="237.5"/>
	</g>
</g>
</svg>
