<?xml version="1.0" encoding="iso-8859-1"?>
<!-- Generator: Adobe Illustrator 16.0.4, SVG Export Plug-In . SVG Version: 6.00 Build 0)  -->
<!DOCTYPE svg PUBLIC "-//W3C//DTD SVG 1.1//EN" "http://www.w3.org/Graphics/SVG/1.1/DTD/svg11.dtd">
<svg version="1.1" xmlns="http://www.w3.org/2000/svg" xmlns:xlink="http://www.w3.org/1999/xlink" x="0px" y="0px" width="2048px"
	 height="1536px" viewBox="0 0 2048 1536" enable-background="new 0 0 2048 1536" xml:space="preserve">
<g id="Art">
	
		<image overflow="visible" width="2048" height="1536" xlink:href="battery/stims/wiatiii-mathproblemsolving-item23-0.svg-components/0.jpeg">	</image>
</g>
<g id="touch04" class="transparent">
	<polyline display="inline" fill="none" points="1714.795,716.404 1989.143,716.404 1989.143,996 1709.143,996 1714.795,716.404 	
		"/>
	<ellipse display="inline" opacity="0.5" fill="#666666" cx="1849.143" cy="855.798" rx="140" ry="139.798"/>
</g>
<g id="touch03" class="transparent">
	<polyline display="inline" fill="none" points="1430.652,716.404 1705,716.404 1705,996 1425,996 1430.652,716.404 	"/>
	<ellipse display="inline" opacity="0.5" fill="#666666" cx="1565" cy="855.798" rx="140" ry="139.798"/>
</g>
<g id="touch02" class="transparent">
	<polyline display="inline" fill="none" points="1141.704,716.404 1416.053,716.404 1416.053,996 1136.053,996 1141.704,716.404 	
		"/>
	<ellipse display="inline" opacity="0.5" fill="#666666" cx="1276.053" cy="855.799" rx="140" ry="139.797"/>
</g>
<g id="touch01" class="transparent">
	<polyline display="inline" fill="none" points="854.562,716.404 1128.91,716.404 1128.91,996 848.91,996 854.562,716.404 	"/>
	<ellipse display="inline" opacity="0.5" fill="#666666" cx="988.91" cy="855.799" rx="140" ry="139.797"/>
</g>
</svg>
